<mxfile host="Electron" modified="2024-05-09T22:21:56.321Z" agent="Mozilla/5.0 (Windows NT 10.0; Win64; x64) AppleWebKit/537.36 (KHTML, like Gecko) draw.io/24.1.0 Chrome/120.0.6099.109 Electron/28.1.0 Safari/537.36" etag="jsw07HTsLnCRbNACf3at" version="24.1.0" type="device">
  <diagram name="Page-1" id="UTk9z3KGayHwuHi3BB7c">
    <mxGraphModel dx="3087" dy="777" grid="1" gridSize="10" guides="1" tooltips="1" connect="1" arrows="1" fold="1" page="1" pageScale="1" pageWidth="850" pageHeight="1100" math="0" shadow="0">
      <root>
        <mxCell id="0" />
        <mxCell id="1" parent="0" />
        <mxCell id="pOTzxFZBRytUuWsHP0g4-7" style="edgeStyle=orthogonalEdgeStyle;rounded=0;orthogonalLoop=1;jettySize=auto;html=1;exitX=0.5;exitY=1;exitDx=0;exitDy=0;" edge="1" parent="1" source="pOTzxFZBRytUuWsHP0g4-3" target="pOTzxFZBRytUuWsHP0g4-4">
          <mxGeometry relative="1" as="geometry" />
        </mxCell>
        <mxCell id="pOTzxFZBRytUuWsHP0g4-3" value="START" style="rounded=0;whiteSpace=wrap;html=1;" vertex="1" parent="1">
          <mxGeometry x="200" y="60" width="120" height="60" as="geometry" />
        </mxCell>
        <mxCell id="pOTzxFZBRytUuWsHP0g4-9" style="edgeStyle=orthogonalEdgeStyle;rounded=0;orthogonalLoop=1;jettySize=auto;html=1;exitX=1;exitY=0.25;exitDx=0;exitDy=0;entryX=0;entryY=0.25;entryDx=0;entryDy=0;" edge="1" parent="1" source="pOTzxFZBRytUuWsHP0g4-4" target="pOTzxFZBRytUuWsHP0g4-8">
          <mxGeometry relative="1" as="geometry" />
        </mxCell>
        <mxCell id="pOTzxFZBRytUuWsHP0g4-12" style="edgeStyle=orthogonalEdgeStyle;rounded=0;orthogonalLoop=1;jettySize=auto;html=1;exitX=0.25;exitY=1;exitDx=0;exitDy=0;entryX=0.25;entryY=0;entryDx=0;entryDy=0;" edge="1" parent="1" source="pOTzxFZBRytUuWsHP0g4-4" target="pOTzxFZBRytUuWsHP0g4-11">
          <mxGeometry relative="1" as="geometry" />
        </mxCell>
        <mxCell id="pOTzxFZBRytUuWsHP0g4-20" style="edgeStyle=orthogonalEdgeStyle;rounded=0;orthogonalLoop=1;jettySize=auto;html=1;exitX=0;exitY=0.5;exitDx=0;exitDy=0;entryX=1;entryY=0.5;entryDx=0;entryDy=0;" edge="1" parent="1" source="pOTzxFZBRytUuWsHP0g4-4" target="pOTzxFZBRytUuWsHP0g4-17">
          <mxGeometry relative="1" as="geometry" />
        </mxCell>
        <mxCell id="pOTzxFZBRytUuWsHP0g4-31" style="edgeStyle=orthogonalEdgeStyle;rounded=0;orthogonalLoop=1;jettySize=auto;html=1;exitX=0;exitY=0.75;exitDx=0;exitDy=0;entryX=0;entryY=0.5;entryDx=0;entryDy=0;" edge="1" parent="1" source="pOTzxFZBRytUuWsHP0g4-4" target="pOTzxFZBRytUuWsHP0g4-30">
          <mxGeometry relative="1" as="geometry" />
        </mxCell>
        <mxCell id="pOTzxFZBRytUuWsHP0g4-35" style="edgeStyle=orthogonalEdgeStyle;rounded=0;orthogonalLoop=1;jettySize=auto;html=1;exitX=0.25;exitY=0;exitDx=0;exitDy=0;entryX=0.25;entryY=1;entryDx=0;entryDy=0;" edge="1" parent="1" source="pOTzxFZBRytUuWsHP0g4-4" target="pOTzxFZBRytUuWsHP0g4-3">
          <mxGeometry relative="1" as="geometry" />
        </mxCell>
        <mxCell id="pOTzxFZBRytUuWsHP0g4-4" value="X MOVES" style="rounded=0;whiteSpace=wrap;html=1;" vertex="1" parent="1">
          <mxGeometry x="200" y="200" width="120" height="60" as="geometry" />
        </mxCell>
        <mxCell id="pOTzxFZBRytUuWsHP0g4-10" style="edgeStyle=orthogonalEdgeStyle;rounded=0;orthogonalLoop=1;jettySize=auto;html=1;exitX=0;exitY=0.75;exitDx=0;exitDy=0;entryX=1;entryY=0.75;entryDx=0;entryDy=0;" edge="1" parent="1" source="pOTzxFZBRytUuWsHP0g4-8" target="pOTzxFZBRytUuWsHP0g4-4">
          <mxGeometry relative="1" as="geometry" />
        </mxCell>
        <mxCell id="pOTzxFZBRytUuWsHP0g4-15" style="edgeStyle=orthogonalEdgeStyle;rounded=0;orthogonalLoop=1;jettySize=auto;html=1;exitX=0.25;exitY=1;exitDx=0;exitDy=0;entryX=1;entryY=0.25;entryDx=0;entryDy=0;" edge="1" parent="1" source="pOTzxFZBRytUuWsHP0g4-8" target="pOTzxFZBRytUuWsHP0g4-11">
          <mxGeometry relative="1" as="geometry" />
        </mxCell>
        <mxCell id="pOTzxFZBRytUuWsHP0g4-22" style="edgeStyle=orthogonalEdgeStyle;rounded=0;orthogonalLoop=1;jettySize=auto;html=1;exitX=1;exitY=0.5;exitDx=0;exitDy=0;entryX=0;entryY=0.5;entryDx=0;entryDy=0;" edge="1" parent="1" source="pOTzxFZBRytUuWsHP0g4-8" target="pOTzxFZBRytUuWsHP0g4-21">
          <mxGeometry relative="1" as="geometry" />
        </mxCell>
        <mxCell id="pOTzxFZBRytUuWsHP0g4-32" style="edgeStyle=orthogonalEdgeStyle;rounded=0;orthogonalLoop=1;jettySize=auto;html=1;exitX=0;exitY=0.5;exitDx=0;exitDy=0;entryX=1;entryY=0.5;entryDx=0;entryDy=0;" edge="1" parent="1" source="pOTzxFZBRytUuWsHP0g4-8" target="pOTzxFZBRytUuWsHP0g4-30">
          <mxGeometry relative="1" as="geometry" />
        </mxCell>
        <mxCell id="pOTzxFZBRytUuWsHP0g4-37" style="edgeStyle=orthogonalEdgeStyle;rounded=0;orthogonalLoop=1;jettySize=auto;html=1;exitX=0.5;exitY=0;exitDx=0;exitDy=0;entryX=1;entryY=0.5;entryDx=0;entryDy=0;" edge="1" parent="1" source="pOTzxFZBRytUuWsHP0g4-8" target="pOTzxFZBRytUuWsHP0g4-3">
          <mxGeometry relative="1" as="geometry" />
        </mxCell>
        <mxCell id="pOTzxFZBRytUuWsHP0g4-8" value="Y MOVES" style="rounded=0;whiteSpace=wrap;html=1;" vertex="1" parent="1">
          <mxGeometry x="480" y="200" width="120" height="60" as="geometry" />
        </mxCell>
        <mxCell id="pOTzxFZBRytUuWsHP0g4-14" style="edgeStyle=orthogonalEdgeStyle;rounded=0;orthogonalLoop=1;jettySize=auto;html=1;exitX=0.75;exitY=0;exitDx=0;exitDy=0;entryX=0.75;entryY=1;entryDx=0;entryDy=0;" edge="1" parent="1" source="pOTzxFZBRytUuWsHP0g4-11" target="pOTzxFZBRytUuWsHP0g4-4">
          <mxGeometry relative="1" as="geometry" />
        </mxCell>
        <mxCell id="pOTzxFZBRytUuWsHP0g4-16" style="edgeStyle=orthogonalEdgeStyle;rounded=0;orthogonalLoop=1;jettySize=auto;html=1;exitX=1;exitY=0.75;exitDx=0;exitDy=0;entryX=0.75;entryY=1;entryDx=0;entryDy=0;" edge="1" parent="1" source="pOTzxFZBRytUuWsHP0g4-11" target="pOTzxFZBRytUuWsHP0g4-8">
          <mxGeometry relative="1" as="geometry" />
        </mxCell>
        <mxCell id="pOTzxFZBRytUuWsHP0g4-27" style="edgeStyle=orthogonalEdgeStyle;rounded=0;orthogonalLoop=1;jettySize=auto;html=1;exitX=0.5;exitY=1;exitDx=0;exitDy=0;entryX=0.5;entryY=1;entryDx=0;entryDy=0;" edge="1" parent="1" source="pOTzxFZBRytUuWsHP0g4-11" target="pOTzxFZBRytUuWsHP0g4-21">
          <mxGeometry relative="1" as="geometry">
            <Array as="points">
              <mxPoint x="260" y="450" />
              <mxPoint x="740" y="450" />
            </Array>
          </mxGeometry>
        </mxCell>
        <mxCell id="pOTzxFZBRytUuWsHP0g4-29" style="edgeStyle=orthogonalEdgeStyle;rounded=0;orthogonalLoop=1;jettySize=auto;html=1;exitX=0;exitY=1;exitDx=0;exitDy=0;entryX=0.25;entryY=1;entryDx=0;entryDy=0;" edge="1" parent="1" source="pOTzxFZBRytUuWsHP0g4-11" target="pOTzxFZBRytUuWsHP0g4-17">
          <mxGeometry relative="1" as="geometry">
            <Array as="points">
              <mxPoint x="200" y="480" />
              <mxPoint x="-30" y="480" />
            </Array>
          </mxGeometry>
        </mxCell>
        <mxCell id="pOTzxFZBRytUuWsHP0g4-34" style="edgeStyle=orthogonalEdgeStyle;rounded=0;orthogonalLoop=1;jettySize=auto;html=1;entryX=0.5;entryY=0;entryDx=0;entryDy=0;" edge="1" parent="1" source="pOTzxFZBRytUuWsHP0g4-11" target="pOTzxFZBRytUuWsHP0g4-30">
          <mxGeometry relative="1" as="geometry" />
        </mxCell>
        <mxCell id="pOTzxFZBRytUuWsHP0g4-11" value="GO TO MOVE #" style="rounded=0;whiteSpace=wrap;html=1;" vertex="1" parent="1">
          <mxGeometry x="200" y="350" width="120" height="60" as="geometry" />
        </mxCell>
        <mxCell id="pOTzxFZBRytUuWsHP0g4-28" style="edgeStyle=orthogonalEdgeStyle;rounded=0;orthogonalLoop=1;jettySize=auto;html=1;exitX=0.75;exitY=1;exitDx=0;exitDy=0;entryX=0.25;entryY=1;entryDx=0;entryDy=0;" edge="1" parent="1" source="pOTzxFZBRytUuWsHP0g4-17" target="pOTzxFZBRytUuWsHP0g4-11">
          <mxGeometry relative="1" as="geometry" />
        </mxCell>
        <mxCell id="pOTzxFZBRytUuWsHP0g4-39" style="edgeStyle=orthogonalEdgeStyle;rounded=0;orthogonalLoop=1;jettySize=auto;html=1;exitX=0.5;exitY=0;exitDx=0;exitDy=0;entryX=0;entryY=0.5;entryDx=0;entryDy=0;" edge="1" parent="1" source="pOTzxFZBRytUuWsHP0g4-17" target="pOTzxFZBRytUuWsHP0g4-3">
          <mxGeometry relative="1" as="geometry" />
        </mxCell>
        <mxCell id="pOTzxFZBRytUuWsHP0g4-17" value="X WINS" style="rounded=0;whiteSpace=wrap;html=1;" vertex="1" parent="1">
          <mxGeometry x="-60" y="200" width="120" height="60" as="geometry" />
        </mxCell>
        <mxCell id="pOTzxFZBRytUuWsHP0g4-23" style="edgeStyle=orthogonalEdgeStyle;rounded=0;orthogonalLoop=1;jettySize=auto;html=1;exitX=0.25;exitY=1;exitDx=0;exitDy=0;entryX=0.75;entryY=1;entryDx=0;entryDy=0;" edge="1" parent="1" source="pOTzxFZBRytUuWsHP0g4-21" target="pOTzxFZBRytUuWsHP0g4-11">
          <mxGeometry relative="1" as="geometry" />
        </mxCell>
        <mxCell id="pOTzxFZBRytUuWsHP0g4-40" style="edgeStyle=orthogonalEdgeStyle;rounded=0;orthogonalLoop=1;jettySize=auto;html=1;exitX=0.5;exitY=0;exitDx=0;exitDy=0;entryX=1;entryY=0.25;entryDx=0;entryDy=0;" edge="1" parent="1" source="pOTzxFZBRytUuWsHP0g4-21" target="pOTzxFZBRytUuWsHP0g4-3">
          <mxGeometry relative="1" as="geometry" />
        </mxCell>
        <mxCell id="pOTzxFZBRytUuWsHP0g4-21" value="Y WINS" style="rounded=0;whiteSpace=wrap;html=1;" vertex="1" parent="1">
          <mxGeometry x="680" y="200" width="120" height="60" as="geometry" />
        </mxCell>
        <mxCell id="pOTzxFZBRytUuWsHP0g4-33" style="edgeStyle=orthogonalEdgeStyle;rounded=0;orthogonalLoop=1;jettySize=auto;html=1;exitX=0.25;exitY=0;exitDx=0;exitDy=0;entryX=0.25;entryY=1;entryDx=0;entryDy=0;" edge="1" parent="1" source="pOTzxFZBRytUuWsHP0g4-30" target="pOTzxFZBRytUuWsHP0g4-11">
          <mxGeometry relative="1" as="geometry" />
        </mxCell>
        <mxCell id="pOTzxFZBRytUuWsHP0g4-41" style="edgeStyle=orthogonalEdgeStyle;rounded=0;orthogonalLoop=1;jettySize=auto;html=1;exitX=0.25;exitY=1;exitDx=0;exitDy=0;entryX=0.5;entryY=0;entryDx=0;entryDy=0;" edge="1" parent="1" source="pOTzxFZBRytUuWsHP0g4-30" target="pOTzxFZBRytUuWsHP0g4-3">
          <mxGeometry relative="1" as="geometry">
            <Array as="points">
              <mxPoint x="230" y="610" />
              <mxPoint x="-210" y="610" />
              <mxPoint x="-210" y="40" />
              <mxPoint x="260" y="40" />
            </Array>
          </mxGeometry>
        </mxCell>
        <mxCell id="pOTzxFZBRytUuWsHP0g4-30" value="DRAW" style="rounded=0;whiteSpace=wrap;html=1;" vertex="1" parent="1">
          <mxGeometry x="200" y="530" width="120" height="60" as="geometry" />
        </mxCell>
      </root>
    </mxGraphModel>
  </diagram>
</mxfile>
